<?xml version="1.0"?>
<svg xmlns="http://www.w3.org/2000/svg" xmlns:xlink="http://www.w3.org/1999/xlink" xmlns:svgjs="http://svgjs.com/svgjs" version="1.1" width="512" height="512" x="0" y="0" viewBox="0 0 512 512" style="enable-background:new 0 0 512 512" xml:space="preserve" class=""><g><g xmlns="http://www.w3.org/2000/svg"><g><path d="m367.371 49.946h-239.154c-4.142 0-7.5 3.357-7.5 7.5s3.358 7.5 7.5 7.5h239.153c4.142 0 7.5-3.357 7.5-7.5s-3.357-7.5-7.499-7.5z" fill="#39aa36" data-original="#000000" style="" class=""/><path d="m330.538 92.738c0-4.143-3.358-7.5-7.5-7.5h-150.488c-4.142 0-7.5 3.357-7.5 7.5s3.358 7.5 7.5 7.5h150.488c4.142 0 7.5-3.357 7.5-7.5z" fill="#39aa36" data-original="#000000" style="" class=""/><path d="m123.368 166.095 18.765 15.902c1.36 1.152 3.08 1.778 4.849 1.778.212 0 .425-.009.638-.027 1.989-.17 3.829-1.125 5.111-2.655l35.347-42.18c2.66-3.175 2.244-7.905-.931-10.565-3.176-2.662-7.906-2.244-10.566.931l-30.503 36.399-13.011-11.026c-3.16-2.678-7.893-2.287-10.571.873s-2.288 7.892.872 10.57z" fill="#39aa36" data-original="#000000" style="" class=""/><path d="m123.368 237.67 18.765 15.902c1.36 1.152 3.08 1.778 4.849 1.778.212 0 .425-.009.638-.027 1.989-.17 3.829-1.125 5.111-2.655l35.347-42.18c2.66-3.175 2.244-7.905-.931-10.565-3.176-2.663-7.906-2.243-10.566.931l-30.503 36.399-13.011-11.026c-3.16-2.677-7.893-2.288-10.571.873-2.679 3.16-2.288 7.892.872 10.57z" fill="#39aa36" data-original="#000000" style="" class=""/><path d="m123.368 309.245 18.765 15.902c1.36 1.152 3.08 1.778 4.849 1.778.212 0 .425-.009.638-.027 1.989-.17 3.829-1.125 5.111-2.655l35.347-42.18c2.66-3.175 2.244-7.905-.931-10.565-3.176-2.663-7.906-2.243-10.566.931l-30.503 36.399-13.011-11.026c-3.16-2.677-7.893-2.287-10.571.873s-2.288 7.892.872 10.57z" fill="#39aa36" data-original="#000000" style="" class=""/><path d="m123.363 380.787 18.765 15.931c1.361 1.155 3.083 1.782 4.854 1.782.211 0 .424-.009.636-.027 1.991-.169 3.832-1.126 5.114-2.657l35.347-42.208c2.66-3.176 2.241-7.906-.935-10.565-3.176-2.657-7.905-2.241-10.565.935l-30.5 36.419-13.008-11.044c-3.159-2.681-7.891-2.294-10.571.864-2.681 3.156-2.294 7.889.863 10.57z" fill="#39aa36" data-original="#000000" style="" class=""/><path d="m306.371 165.346h-85.434c-4.142 0-7.5 3.357-7.5 7.5s3.358 7.5 7.5 7.5h85.434c4.142 0 7.5-3.357 7.5-7.5s-3.358-7.5-7.5-7.5z" fill="#39aa36" data-original="#000000" style="" class=""/><path d="m366.719 130.025h-88.694c-4.142 0-7.5 3.357-7.5 7.5s3.358 7.5 7.5 7.5h88.694c4.142 0 7.5-3.357 7.5-7.5s-3.358-7.5-7.5-7.5z" fill="#39aa36" data-original="#000000" style="" class=""/><path d="m242.564 130.025h-21.627c-4.142 0-7.5 3.357-7.5 7.5s3.358 7.5 7.5 7.5h21.627c4.142 0 7.5-3.357 7.5-7.5s-3.358-7.5-7.5-7.5z" fill="#39aa36" data-original="#000000" style="" class=""/><path d="m220.937 236.921c-4.142 0-7.5 3.357-7.5 7.5s3.358 7.5 7.5 7.5h85.434c4.142 0 7.5-3.357 7.5-7.5s-3.358-7.5-7.5-7.5z" fill="#39aa36" data-original="#000000" style="" class=""/><path d="m374.219 280.676c0-4.143-3.358-7.5-7.5-7.5h-145.782c-4.142 0-7.5 3.357-7.5 7.5s3.358 7.5 7.5 7.5h145.782c4.142 0 7.5-3.358 7.5-7.5z" fill="#39aa36" data-original="#000000" style="" class=""/><path d="m220.937 380.07c-4.142 0-7.5 3.357-7.5 7.5s3.358 7.5 7.5 7.5h67.123c4.142 0 7.5-3.357 7.5-7.5s-3.358-7.5-7.5-7.5z" fill="#39aa36" data-original="#000000" style="" class=""/><path d="m366.719 201.601h-21.628c-4.142 0-7.5 3.357-7.5 7.5s3.358 7.5 7.5 7.5h21.628c4.142 0 7.5-3.357 7.5-7.5s-3.358-7.5-7.5-7.5z" fill="#39aa36" data-original="#000000" style="" class=""/><path d="m317.159 209.101c0-4.143-3.358-7.5-7.5-7.5h-88.722c-4.142 0-7.5 3.357-7.5 7.5s3.358 7.5 7.5 7.5h88.722c4.142 0 7.5-3.358 7.5-7.5z" fill="#39aa36" data-original="#000000" style="" class=""/><path d="m220.937 323.495h17.857c4.142 0 7.5-3.357 7.5-7.5s-3.358-7.5-7.5-7.5h-17.857c-4.142 0-7.5 3.357-7.5 7.5s3.357 7.5 7.5 7.5z" fill="#39aa36" data-original="#000000" style="" class=""/><path d="m306.371 323.495c4.142 0 7.5-3.357 7.5-7.5s-3.358-7.5-7.5-7.5h-40.988c-4.142 0-7.5 3.357-7.5 7.5s3.358 7.5 7.5 7.5z" fill="#39aa36" data-original="#000000" style="" class=""/><path d="m326.484 352.251c0-4.143-3.358-7.5-7.5-7.5h-98.048c-4.142 0-7.5 3.357-7.5 7.5s3.358 7.5 7.5 7.5h98.048c4.142 0 7.5-3.357 7.5-7.5z" fill="#39aa36" data-original="#000000" style="" class=""/><path d="m425.309 410.49c-3.226-2.598-7.948-2.089-10.545 1.136l-23.367 29.01-9.141-8.071c-3.105-2.742-7.844-2.446-10.586.658s-2.447 7.844.658 10.586l15.023 13.266c1.376 1.215 3.143 1.878 4.964 1.878.211 0 .423-.009.635-.027 2.041-.173 3.922-1.173 5.207-2.768l28.289-35.121c2.597-3.227 2.089-7.948-1.137-10.547z" fill="#39aa36" data-original="#000000" style="" class=""/><path d="m421.415 360.571v-158.132c0-4.143-3.358-7.5-7.5-7.5s-7.5 3.357-7.5 7.5v155.224c-2.401-.223-4.817-.355-7.24-.355-42.243 0-76.663 34.047-77.313 76.139h-229.729c-1.604 0-2.959-1.368-2.959-2.988v-412.499c0-1.604 1.355-2.96 2.959-2.96h311.322c1.604 0 2.96 1.355 2.96 2.96v149.868c0 4.143 3.358 7.5 7.5 7.5s7.5-3.357 7.5-7.5v-149.868c0-9.903-8.057-17.96-17.96-17.96h-311.322c-9.903 0-17.96 8.057-17.96 17.96v20.733h-20.732c-9.903 0-17.959 8.057-17.959 17.96v216.17c0 4.143 3.358 7.5 7.5 7.5s7.5-3.357 7.5-7.5v-216.17c0-1.604 1.355-2.96 2.959-2.96h20.732v376.766c0 9.919 8.057 17.988 17.959 17.988h230.938c1.496 8.345 4.334 16.326 8.427 23.692h-278.056c-1.604 0-2.959-1.368-2.959-2.988v-161.688c0-4.143-3.358-7.5-7.5-7.5s-7.5 3.357-7.5 7.5v161.688c0 9.919 8.057 17.988 17.959 17.988h288.39c.174 0 .345-.014.516-.026 14.643 15.857 35.155 24.887 56.827 24.887 42.648 0 77.344-34.697 77.344-77.346.001-34.154-22.839-64.378-55.103-74.083zm-22.241 136.429c-18.418 0-35.804-8.09-47.697-22.194-8.28-9.821-13.257-21.76-14.397-34.573-.167-1.75-.249-3.574-.249-5.578 0-34.378 27.967-62.346 62.344-62.346 4.453 0 8.881.468 13.163 1.391 28.498 6.131 49.181 31.766 49.181 60.955 0 34.377-27.968 62.345-62.345 62.345z" fill="#39aa36" data-original="#000000" style="" class=""/></g></g></g></svg>
