<svg id="Layer_1" data-name="Layer 1" xmlns="http://www.w3.org/2000/svg" viewBox="0 0 410.01 98.46"><defs><style>.cls-1,.cls-2{fill:#212529;}.cls-2{font-size:38.86px;font-family:Montserrat-Light, Montserrat;font-weight:300;}.cls-3{letter-spacing:-0.02em;}.cls-4{letter-spacing:-0.01em;}.cls-5{letter-spacing:0em;}</style></defs><path class="cls-1" d="M121.36,13.07V32.85H110.23v5a49.68,49.68,0,0,1-37.7,48.2,63.57,63.57,0,0,0-2.17-38.73A63.34,63.34,0,0,0,39.43,13.07h81.93m5-5H16.17l18.58,8.31A58.43,58.43,0,0,1,65.69,49.1a58.42,58.42,0,0,1-.5,43.2,54.66,54.66,0,0,0,50-54.45h11.13V8.07Z"/><path class="cls-1" d="M60.6,92.39a49,49,0,0,0-1.81-6.82A50.62,50.62,0,0,0,19.08,52.05L7.31,50.14A54.66,54.66,0,0,0,60.56,92.51h.07Z"/><path class="cls-1" d="M33.05,20.19,6,8.07H5.9V37.85a54.87,54.87,0,0,0,.58,7.94l13.26,2.15A54.61,54.61,0,0,1,60.5,78.74h0a55.65,55.65,0,0,1,2.65,6.82A54.66,54.66,0,0,0,33.05,20.19Z"/><path class="cls-1" d="M154.6,7.32q7.93,0,12.15,3.9A13.54,13.54,0,0,1,171,21.67a18.32,18.32,0,0,1-.78,5.23,13.78,13.78,0,0,1-2.49,4.77,12.08,12.08,0,0,1-4.57,3.45,17,17,0,0,1-7,1.3h-6V49.9H141.7V7.32Zm1.45,20.94a6.87,6.87,0,0,0,3.18-.66,5.75,5.75,0,0,0,2-1.68,7.27,7.27,0,0,0,1-2.11,7.16,7.16,0,0,0,.32-1.91,9.3,9.3,0,0,0-.21-1.71,6.66,6.66,0,0,0-.84-2.17,5.14,5.14,0,0,0-1.93-1.85,7,7,0,0,0-3.5-.75h-6V28.26Z"/><path class="cls-1" d="M178.49,7.32h8.39V41.8h20v8.1H178.49Z"/><path class="cls-1" d="M210.77,49.9,230,5.64h.46L249.65,49.9h-9.72L227.67,18.77l6.07-4.16L219.05,49.9Zm13.14-15.39h12.78l2.95,7.06H221.3Z"/><path class="cls-1" d="M294,51.63,261.68,22.48l2.49,1.38.17,26h-8.5V5.64h.35l31.58,29-1.85-.81-.17-26.55h8.44V51.63Z"/><path class="cls-1" d="M302.29,7.32H331v8.1H320.63V49.9h-8.39V15.42h-9.95Z"/><path class="cls-1" d="M330.81,49.9,350,5.64h.46L369.69,49.9H360L347.71,18.77l6.07-4.16L339.09,49.9ZM344,34.51h12.78l2.95,7.06H341.34Z"/><path class="cls-1" d="M398.61,17.62a31.75,31.75,0,0,0-4.94-2.2,14.49,14.49,0,0,0-4.72-.87,7.35,7.35,0,0,0-4.28,1.1,3.76,3.76,0,0,0-1.56,3.3,3.68,3.68,0,0,0,1.19,2.69,11.52,11.52,0,0,0,3.06,2.11,40.34,40.34,0,0,0,3.91,1.68,26.93,26.93,0,0,1,4.8,2.34,11.59,11.59,0,0,1,3.82,3.87,12.4,12.4,0,0,1,1.5,6.51,11.42,11.42,0,0,1-1.68,6,12.23,12.23,0,0,1-4.91,4.48,17,17,0,0,1-8,1.71,26.65,26.65,0,0,1-7.43-1.1,23.79,23.79,0,0,1-7.15-3.47l3.71-6.54a19.86,19.86,0,0,0,5,2.66,14.83,14.83,0,0,0,5.09,1,11.16,11.16,0,0,0,3-.43,5.6,5.6,0,0,0,2.54-1.47,4,4,0,0,0,1-2.9,3.65,3.65,0,0,0-.84-2.31,8.7,8.7,0,0,0-2.26-1.91,18.43,18.43,0,0,0-3.09-1.5q-2-.75-4.05-1.74a20.94,20.94,0,0,1-3.91-2.4,10.9,10.9,0,0,1-2.95-3.53,10.9,10.9,0,0,1-1.13-5.18,12.15,12.15,0,0,1,1.65-6.42,11.71,11.71,0,0,1,4.66-4.31,16.1,16.1,0,0,1,6.94-1.76A24,24,0,0,1,396,8.3a29.8,29.8,0,0,1,5.76,2.89Z"/><text class="cls-2" transform="translate(141.08 79.42)">y ma<tspan class="cls-3" x="94.5" y="0">t</tspan><tspan x="109.22" y="0">e</tspan><tspan class="cls-4" x="132.42" y="0">r</tspan><tspan class="cls-5" x="147.38" y="0">as</tspan></text></svg>
